HIERARCHY
ROOT Hips
{
	OFFSET	0.00	0.00	0.00
	CHANNELS 6 Xposition Yposition Zposition Zrotation Xrotation Yrotation
	JOINT LeftUpLeg
	{
		OFFSET	 0.126116	-0.065224	 0.014019
		CHANNELS 3 Zrotation Xrotation Yrotation
		JOINT LeftLeg
		{
			OFFSET	 0.000000	 0.569914	 0.000000
			CHANNELS 3 Zrotation Xrotation Yrotation
			JOINT LeftFoot
			{
				OFFSET	 0.000000	 0.544423	 0.000000
				CHANNELS 3 Zrotation Xrotation Yrotation
				JOINT LeftToeBase
				{
					OFFSET	 0.000000	 0.207117	 0.000000
					CHANNELS 3 Zrotation Xrotation Yrotation
					End Site
					{
						OFFSET	 0.000000	 0.207117	 0.000000
					}
				}
			}
		}
	}
	JOINT RightUpLeg
	{
		OFFSET	-0.124023	-0.065224	 0.008373
		CHANNELS 3 Zrotation Xrotation Yrotation
		JOINT RightLeg
		{
			OFFSET	 0.000000	 0.570047	 0.000000
			CHANNELS 3 Zrotation Xrotation Yrotation
			JOINT RightFoot
			{
				OFFSET	 0.000000	 0.544354	 0.000000
				CHANNELS 3 Zrotation Xrotation Yrotation
				JOINT RightToeBase
				{
					OFFSET	 0.000000	 0.207540	 0.000000
					CHANNELS 3 Zrotation Xrotation Yrotation
					End Site
					{
						OFFSET	 0.000000	 0.207540	 0.000000
					}
				}
			}
		}
	}
	JOINT Spine
	{
		OFFSET	 0.000184	 0.117403	 0.007763
		CHANNELS 3 Zrotation Xrotation Yrotation
		JOINT Spine1
		{
			OFFSET	 0.000000	 0.137269	 0.000000
			CHANNELS 3 Zrotation Xrotation Yrotation
			JOINT Spine2
			{
				OFFSET	 0.000000	 0.156879	 0.000000
				CHANNELS 3 Zrotation Xrotation Yrotation
				JOINT LeftShoulder
				{
					OFFSET	 0.080501	 0.160143	 0.002496
					CHANNELS 3 Zrotation Xrotation Yrotation
					JOINT LeftArm
					{
						OFFSET	 0.000000	 0.164363	 0.000000
						CHANNELS 3 Zrotation Xrotation Yrotation
						JOINT LeftForeArm
						{
							OFFSET	 0.000000	 0.364576	 0.000000
							CHANNELS 3 Zrotation Xrotation Yrotation
							JOINT LeftHand
							{
								OFFSET	 0.000000	 0.360812	 0.000000
								CHANNELS 3 Zrotation Xrotation Yrotation
								JOINT LeftHandIndex1
								{
									OFFSET	 0.000000	 0.086006	 0.000000
									CHANNELS 3 Zrotation Xrotation Yrotation
									JOINT LeftHandIndex2
									{
										OFFSET	 0.000000	 0.047237	 0.000000
										CHANNELS 3 Zrotation Xrotation Yrotation
										JOINT LeftHandIndex3
										{
											OFFSET	-0.004284	 0.038165	 0.000551
											CHANNELS 3 Zrotation Xrotation Yrotation
											End Site
											{
												OFFSET	-0.004284	 0.038165	 0.000551
											}
										}
									}
								}
							}
						}
					}
				}
				JOINT Neck
				{
					OFFSET	 0.000000	 0.176489	 0.000000
					CHANNELS 3 Zrotation Xrotation Yrotation
					JOINT Head
					{
						OFFSET	 0.000000	 0.077941	 0.001747
						CHANNELS 3 Zrotation Xrotation Yrotation
						End Site
						{
							OFFSET	 0.000000	 0.077941	 0.001747
						}
					}
				}
				JOINT RightShoulder
				{
					OFFSET	-0.080363	 0.159706	-0.000306
					CHANNELS 3 Zrotation Xrotation Yrotation
					JOINT RightArm
					{
						OFFSET	 0.000000	 0.164196	 0.000000
						CHANNELS 3 Zrotation Xrotation Yrotation
						JOINT RightForeArm
						{
							OFFSET	 0.000000	 0.365611	 0.000000
							CHANNELS 3 Zrotation Xrotation Yrotation
							JOINT RightHand
							{
								OFFSET	 0.000000	 0.360648	 0.000000
								CHANNELS 3 Zrotation Xrotation Yrotation
								JOINT RightHandIndex1
								{
									OFFSET	 0.000000	 0.069977	 0.000000
									CHANNELS 3 Zrotation Xrotation Yrotation
									JOINT RightHandIndex2
									{
										OFFSET	 0.000000	 0.052305	 0.000000
										CHANNELS 3 Zrotation Xrotation Yrotation
										JOINT RightHandIndex3
										{
											OFFSET	 0.009002	 0.042196	 0.000782
											CHANNELS 3 Zrotation Xrotation Yrotation
											End Site
											{
												OFFSET	 0.009002	 0.042196	 0.000782
											}
										}
									}
								}
							}
						}
					}
				}
			}
		}
	}
}
MOTION
Frames:    13
Frame Time: 0.03333334
 0.959387	 1.245176	-0.116891	 2.695362	-4.215713	-38.856290	-178.318300	 7.174735	-18.992910	 3.501822	-33.523340	 4.129817	 65.480970	 48.769020	-81.849690	 1.398032	 23.660640	-7.474032	 158.675200	 22.043070	 33.100880	-3.270195	-33.500680	-2.357627	-40.940530	 47.372940	 51.466760	-1.479927	 29.082120	 3.540423	-0.579468	 5.435452	 2.131828	-2.352870	 0.892793	-0.628644	 1.204254	 3.314966	-2.670482	-109.916300	-22.573200	 102.310400	 36.022210	 43.232850	-30.352530	 46.971600	-0.686330	 36.680980	 1.671685	-52.035510	 22.862670	-7.218940	 15.541180	-5.918180	-7.257219	 8.962671	 2.180080	 4.963066	-4.014628	-0.346955	 10.083090	-9.098674	-12.872150	 1.662628	 2.080656	-44.150760	 91.943300	 2.402615	-92.364510	-18.431070	-8.221979	 67.397310	-26.788520	-2.518943	-30.018880	 42.330460	-46.778270	 28.621230	-2.903214	 16.055560	-3.624450	 14.411030	 24.332270	-7.170342	-8.239867	-2.131385	 0.447455
 0.980903	 1.262102	-0.107387	 1.123484	-4.388224	-39.742360	-178.750100	 3.673625	-20.178960	 2.816234	-28.052910	 2.213925	 62.369850	 48.671950	-76.736720	 1.398039	 23.660620	-7.474037	 163.143200	 17.821320	 26.223550	-2.226787	-24.267820	-0.846046	-35.809430	 44.665000	 45.882710	-1.296642	 28.025790	 3.440236	-0.257247	 4.766313	-11.538500	 0.496675	 1.499180	-2.259076	-2.518646	 0.870181	 0.335537	-111.081100	-26.868130	 102.806300	 36.549850	 42.956910	-31.207270	 50.417760	-0.738652	 39.104240	-17.150460	-41.163600	 5.857333	-7.538953	 15.726030	-5.759289	-7.300209	 9.074850	 2.203127	 4.963066	-4.014628	-0.346955	 7.726502	-9.839964	-13.780740	 1.090820	 3.124115	-42.200450	 92.825720	 5.012390	-93.059950	-17.456990	-6.576783	 62.187620	-28.312790	-2.568853	-32.673050	 28.273800	-28.405910	 25.084230	-2.901077	 15.915850	-3.866140	 14.428620	 24.738440	-7.287206	-8.239867	-2.131385	 0.447455
 0.984461	 1.267851	-0.101809	 0.631296	-4.384007	-41.525620	-178.982100	 2.155528	-22.389230	 2.509069	-25.398640	 0.628681	 60.761380	 49.303010	-74.306160	 1.398039	 23.660610	-7.474038	 164.791000	 14.633330	 22.321810	-1.477518	-16.730880	 0.601136	-32.629440	 42.361750	 41.656450	-1.196814	 27.323090	 3.377769	-0.073295	 4.231984	-24.508090	 3.989938	 3.736703	-4.064080	-6.361718	-2.142105	 3.540254	-111.885300	-30.058350	 102.645000	 37.054630	 42.883770	-30.995180	 52.470720	-0.805872	 40.015490	-24.388100	-21.786710	-4.028511	-7.529552	 16.044010	-5.697346	-7.336062	 9.136412	 2.217175	 4.963066	-4.014628	-0.346955	 5.629536	-10.549170	-13.984280	 0.635217	 3.324523	-40.480220	 92.933210	 7.522818	-93.721260	-16.924520	-4.865910	 59.082260	-28.905740	-2.429938	-34.037890	 11.613250	-9.054492	 25.166790	-2.899177	 15.775020	-4.109673	 14.447320	 25.147790	-7.405488	-8.239867	-2.131385	 0.447455
 0.983658	 1.270207	-0.101111	 0.244242	-4.314065	-42.340710	-178.772800	 1.487832	-23.187370	 2.388326	-24.322070	 0.206399	 59.965440	 49.356150	-73.373290	 1.398026	 23.660610	-7.474032	 165.639300	 13.200150	 21.587020	-1.210553	-13.773550	 0.980565	-31.978730	 41.283200	 40.260210	-1.183334	 27.231470	 3.369070	 0.331326	 3.973180	-35.150300	 5.562769	 4.567623	-5.109352	-8.281538	-3.560192	 6.152039	-111.922900	-30.172090	 102.589800	 38.077680	 42.362940	-31.497270	 51.320240	-0.866151	 39.212420	-23.058980	-4.136567	-9.250229	-7.442231	 16.605550	-5.655361	-7.349400	 9.038733	 2.201679	 4.963066	-4.014628	-0.346955	 5.529342	-10.285020	-13.272260	-0.193974	 2.167767	-40.168100	 92.914980	 8.178702	-93.937110	-16.678900	-4.079716	 58.646700	-28.535220	-1.961371	-34.383140	-3.267648	 6.303762	 26.481820	-2.896862	 15.632980	-4.355376	 14.467160	 25.560530	-7.525221	-8.239867	-2.131385	 0.447455
 0.979709	 1.270542	-0.102735	-0.135735	-4.225664	-43.047420	-178.222000	 1.219286	-23.783070	 2.377174	-24.221320	-0.026438	 59.429310	 49.560030	-73.136110	 1.398010	 23.660610	-7.474024	 166.188600	 13.082440	 21.258700	-1.214596	-13.817960	 1.179355	-32.215710	 41.482440	 40.187370	-1.180029	 27.212620	 3.366647	 0.639058	 3.723195	-43.023220	 6.802669	 5.530618	-5.998036	-9.776813	-4.851861	 8.266203	-111.865900	-29.915960	 102.550400	 39.343330	 41.379060	-32.243220	 48.536170	-0.917961	 36.783960	-18.668580	 11.139670	-15.054320	-7.344606	 17.202930	-5.616197	-7.360202	 8.920721	 2.182420	 4.963066	-4.014628	-0.346955	 5.664072	-9.898991	-12.441630	-1.073526	 0.843409	-40.157570	 92.880530	 8.618371	-94.100990	-16.469600	-3.672441	 58.526500	-27.162110	-1.299385	-33.530190	-17.181810	 18.109470	 31.075060	-2.895040	 15.489170	-4.603972	 14.488290	 25.978330	-7.647009	-8.239867	-2.131385	 0.447455
 0.977212	 1.270709	-0.105131	-0.322121	-4.234469	-43.234000	-177.864800	 1.130718	-24.060880	 2.404494	-24.467090	 0.061009	 59.088800	 49.514790	-73.056310	 1.397992	 23.660620	-7.474015	 166.384000	 13.074160	 21.371210	-1.252832	-14.235600	 1.094892	-32.487170	 41.579900	 40.405790	-1.197346	 27.311160	 3.379342	 0.935333	 3.597062	-47.414110	 6.991925	 5.786983	-6.534566	-9.855758	-5.154740	 9.823863	-111.752400	-29.765110	 102.621600	 39.101120	 41.438070	-32.045970	 46.239040	-0.968088	 33.044140	-14.862230	 18.243910	-20.671590	-7.344208	 17.173720	-5.629341	-7.358570	 8.713098	 2.146596	 4.963066	-4.014628	-0.346955	 6.155105	-9.668631	-11.855670	-1.434602	 0.317064	-40.396870	 92.892350	 8.791254	-94.206140	-16.219520	-3.908119	 58.662710	-24.790320	 0.227216	-33.637290	-27.711880	 24.089400	 38.740250	-2.892793	 15.344010	-4.854995	 14.510670	 26.399950	-7.770437	-8.239867	-2.131385	 0.447455
 0.975012	 1.270549	-0.108404	-0.466990	-4.264194	-43.244820	-177.480500	 1.178420	-24.221910	 2.471917	-25.069990	 0.267635	 58.897720	 49.460280	-73.203920	 1.397972	 23.660630	-7.474004	 166.474100	 13.254600	 21.638280	-1.335968	-15.137860	 0.906308	-32.888710	 41.809140	 40.880710	-1.222168	 27.452010	 3.397566	 1.101985	 3.544654	-47.970780	 7.019501	 5.926024	-6.871515	-9.559793	-5.184170	 10.967140	-111.617700	-29.647520	 102.731900	 37.649560	 41.987190	-31.089500	 44.067300	-1.060915	 27.910910	-13.794090	 19.450220	-24.972630	-7.377376	 16.927970	-5.660650	-7.352771	 8.470696	 2.104440	 4.963066	-4.014628	-0.346955	 6.777693	-9.483258	-11.344630	-1.624585	 0.059801	-40.787050	 92.920200	 8.875380	-94.293070	-15.892750	-4.398381	 58.845890	-21.406530	 1.184308	-31.914660	-32.912610	 24.998960	 44.433180	-2.890815	 15.195650	-5.111425	 14.534660	 26.830740	-7.897191	-8.239867	-2.131385	 0.447455
 0.973766	 1.270546	-0.110429	-0.595490	-4.305112	-43.237280	-177.198400	 1.181037	-24.479800	 2.555177	-25.481860	 0.507246	 58.704880	 49.404990	-73.256030	 1.397955	 23.660640	-7.473993	 166.541000	 13.362440	 21.895360	-1.389405	-15.725760	 0.774025	-33.141920	 41.894870	 41.155820	-1.242202	 27.565370	 3.412298	 1.032013	 3.585236	-44.673930	 6.965914	 6.004998	-7.075424	-9.194559	-5.128806	 11.809970	-111.532900	-29.590480	 102.792500	 36.771650	 42.155670	-30.530760	 40.474170	-1.154460	 21.498010	-16.394320	 15.454130	-27.747140	-7.397069	 16.784520	-5.682759	-7.347438	 8.229261	 2.062562	 4.963066	-4.014628	-0.346955	 7.269207	-9.318281	-10.902800	-1.735237	-0.036327	-41.165120	 92.939830	 9.010993	-94.392020	-15.412270	-4.839421	 58.999440	-17.245030	 1.443294	-28.351550	-31.976890	 21.977070	 47.242150	-2.889092	 15.046410	-5.369304	 14.559950	 27.264020	-8.025347	-8.239867	-2.131385	 0.447455
 0.973787	 1.270808	-0.110661	-0.685176	-4.365964	-43.175720	-177.073600	 1.120919	-24.669090	 2.554973	-25.605010	 0.501963	 58.535190	 49.421090	-73.226780	 1.397949	 23.660650	-7.473986	 166.549600	 13.393470	 22.150320	-1.408459	-15.925690	 0.768673	-33.141670	 41.902420	 41.149010	-1.247471	 27.595160	 3.416175	 0.720426	 3.708456	-37.880520	 6.670098	 5.928585	-7.215856	-8.622658	-4.876089	 12.492880	-111.598700	-29.717720	 102.703300	 36.876200	 41.789420	-30.638580	 35.292390	-1.231303	 13.958330	-22.760960	 6.259996	-30.114640	-7.375598	 16.951490	-5.676677	-7.343141	 7.991121	 2.021478	 4.963066	-4.014628	-0.346955	 7.367651	-9.229652	-10.665370	-1.603542	 0.332170	-41.314350	 92.934630	 9.302764	-94.527250	-14.718960	-5.240881	 59.094600	-12.461900	 1.155309	-23.690490	-26.150660	 15.811540	 48.814870	-2.886760	 14.894700	-5.631570	 14.586820	 27.704320	-8.156205	-8.239867	-2.131385	 0.447455
 0.974186	 1.271170	-0.110373	-0.760615	-4.432318	-43.109490	-177.001200	 1.040005	-24.866060	 2.544491	-25.638360	 0.492201	 58.351080	 49.411770	-73.132040	 1.397942	 23.660670	-7.473979	 166.541800	 13.398930	 22.404080	-1.415957	-16.001330	 0.766450	-33.095010	 41.829060	 41.074320	-1.252760	 27.625050	 3.420068	 0.193401	 3.826978	-28.195810	 6.339740	 5.817675	-7.263299	-8.032877	-4.584670	 12.936880	-111.665100	-29.845280	 102.613500	 37.229400	 41.294370	-30.910460	 29.426550	-1.291359	 5.777572	-31.403520	-6.200976	-33.238760	-7.354059	 17.118980	-5.670634	-7.339006	 7.752238	 1.980308	 4.963066	-4.014628	-0.346955	 7.466001	-9.140346	-10.427420	-1.462204	 0.708861	-41.528450	 92.930110	 9.595448	-94.662960	-13.992680	-5.603042	 59.179860	-7.364122	 0.305541	-18.015360	-16.591850	 6.987861	 50.407850	-2.885144	 14.742510	-5.894462	 14.615020	 28.145930	-8.288245	-8.239867	-2.131385	 0.447455
 0.974305	 1.271618	-0.110271	-0.816127	-4.423817	-43.103060	-176.890400	 1.024896	-25.086360	 2.547827	-25.687850	 0.492807	 58.193670	 49.399390	-73.042360	 1.397941	 23.660670	-7.473978	 166.591100	 13.403410	 22.637840	-1.413740	-15.976700	 0.767046	-33.081990	 41.701740	 40.971750	-1.253613	 27.629860	 3.420696	-0.189077	 3.836068	-21.590490	 6.440988	 5.849232	-7.250553	-8.038141	-4.594009	 13.123930	-111.675800	-29.865820	 102.599000	 37.189970	 40.897530	-31.009760	 26.172390	-1.333435	 0.872421	-36.878100	-13.227850	-35.671490	-7.350590	 17.145960	-5.669668	-7.338358	 7.713765	 1.973681	 4.963066	-4.014628	-0.346955	 7.481802	-9.125923	-10.389120	-1.448171	 0.760551	-41.529590	 92.929440	 9.642587	-94.684830	-13.625310	-5.653486	 59.217780	-4.347819	-0.401978	-13.525810	-10.182650	 1.626321	 51.585390	-2.884951	 14.718000	-5.936785	 14.619690	 28.217050	-8.309585	-8.239867	-2.131385	 0.447455
 0.974396	 1.272360	-0.110254	-0.976397	-4.230499	-43.180000	-176.558200	 1.123778	-25.320790	 2.577131	-25.813940	 0.510921	 58.075940	 49.371320	-72.965180	 1.397948	 23.660650	-7.473985	 166.974600	 13.299900	 22.813220	-1.364737	-15.454720	 0.780472	-33.115730	 41.268140	 40.684370	-1.248131	 27.598890	 3.416661	-0.149799	 3.729576	-21.295880	 7.921056	 6.502204	-7.148959	-9.624200	-5.545053	 12.916330	-111.607000	-29.733650	 102.692100	 36.300910	 39.931190	-30.952400	 26.787030	-1.362364	 0.884845	-35.555870	-9.864793	-34.177410	-7.372909	 16.972400	-5.675919	-7.342616	 7.961298	 2.016336	 4.963066	-4.014628	-0.346955	 7.379951	-9.218525	-10.635650	-1.680518	 0.280158	-41.207050	 92.934020	 9.339302	-94.544180	-13.382780	-4.939648	 59.216630	-4.354995	-0.402604	-11.172910	-10.621880	 1.785628	 50.514030	-2.886519	 14.875700	-5.664402	 14.590270	 27.759460	-8.172647	-8.239867	-2.131385	 0.447455
 0.974792	 1.273238	-0.109847	-1.150707	-4.036350	-43.241310	-176.261200	 1.169732	-25.519010	 2.598151	-25.881160	 0.524795	 58.002660	 49.342850	-72.909180	 1.397954	 23.660640	-7.473992	 167.372000	 13.043580	 22.951540	-1.295508	-14.709730	 0.798640	-33.070920	 40.772430	 40.345580	-1.243307	 27.571620	 3.413111	-0.106110	 3.604683	-20.883710	 9.825773	 7.265544	-7.080215	-11.598720	-6.692431	 12.435520	-111.546700	-29.617190	 102.773800	 35.239000	 39.047660	-30.777650	 27.428320	-1.392390	 0.898511	-33.948620	-6.289946	-32.503840	-7.392563	 16.819550	-5.681478	-7.346522	 8.179295	 2.053938	 4.963066	-4.014628	-0.346955	 7.289896	-9.299719	-10.852960	-1.924515	-0.188808	-40.975110	 92.938710	 9.072221	-94.420410	-13.165570	-4.205753	 59.123270	-4.363343	-0.403439	-8.767486	-11.056380	 1.237734	 49.310020	-2.888542	 15.014580	-5.424349	 14.565480	 27.356410	-8.052740	-8.239867	-2.131385	 0.447455
